<svg width="24" height="25" viewBox="0 0 24 25" fill="none" xmlns="http://www.w3.org/2000/svg">
<path d="M21 9.58058L21 3.58058M21 3.58058H15M21 3.58058L12 12.5806M10 3.58057H7.8C6.11984 3.58057 5.27976 3.58057 4.63803 3.90755C4.07354 4.19517 3.6146 4.65411 3.32698 5.21859C3 5.86033 3 6.70041 3 8.38057V16.7806C3 18.4607 3 19.3008 3.32698 19.9425C3.6146 20.507 4.07354 20.966 4.63803 21.2536C5.27976 21.5806 6.11984 21.5806 7.8 21.5806H16.2C17.8802 21.5806 18.7202 21.5806 19.362 21.2536C19.9265 20.966 20.3854 20.507 20.673 19.9425C21 19.3008 21 18.4607 21 16.7806V14.5806" stroke="white" stroke-opacity="0.5" stroke-width="2" stroke-linecap="round" stroke-linejoin="round"/>
</svg>
