<svg width="22" height="19" viewBox="0 0 22 19" fill="none" xmlns="http://www.w3.org/2000/svg">
<path d="M4 10.5807H7M1 6.58069L3 7.58069L4.27064 3.76876C4.53292 2.98194 4.66405 2.58853 4.90729 2.29767C5.12208 2.04082 5.39792 1.84201 5.70951 1.71946C6.06236 1.58069 6.47705 1.58069 7.30643 1.58069H14.6936C15.523 1.58069 15.9376 1.58069 16.2905 1.71946C16.6021 1.84201 16.8779 2.04082 17.0927 2.29767C17.3359 2.58853 17.4671 2.98194 17.7294 3.76876L19 7.58069L21 6.58069M15 10.5807H18M5.8 7.58069H16.2C17.8802 7.58069 18.7202 7.58069 19.362 7.90767C19.9265 8.19529 20.3854 8.65423 20.673 9.21872C21 9.86045 21 10.7005 21 12.3807V15.0807C21 15.5453 21 15.7777 20.9616 15.9709C20.8038 16.7643 20.1836 17.3844 19.3902 17.5423C19.197 17.5807 18.9647 17.5807 18.5 17.5807H18C16.8954 17.5807 16 16.6853 16 15.5807C16 15.3045 15.7761 15.0807 15.5 15.0807H6.5C6.22386 15.0807 6 15.3045 6 15.5807C6 16.6853 5.10457 17.5807 4 17.5807H3.5C3.03534 17.5807 2.80302 17.5807 2.60982 17.5423C1.81644 17.3844 1.19624 16.7643 1.03843 15.9709C1 15.7777 1 15.5453 1 15.0807V12.3807C1 10.7005 1 9.86045 1.32698 9.21872C1.6146 8.65423 2.07354 8.19529 2.63803 7.90767C3.27976 7.58069 4.11984 7.58069 5.8 7.58069Z" stroke="#6341D7" stroke-width="2" stroke-linecap="round" stroke-linejoin="round"/>
</svg>
