<svg width="24" height="25" viewBox="0 0 24 25" fill="none" xmlns="http://www.w3.org/2000/svg">
<path d="M9.5 22.5807H14.5M8 2.58069H16M12 5.58069V2.58069M4 12.5807H20M17 19.5807L18.5 22.5807M7 19.5807L5.5 22.5807M8.5 16.0807H8.51M15.5 16.0807H15.51M8.8 19.5807H15.2C16.8802 19.5807 17.7202 19.5807 18.362 19.2537C18.9265 18.9661 19.3854 18.5071 19.673 17.9427C20 17.3009 20 16.4608 20 14.7807V10.3807C20 8.70053 20 7.86045 19.673 7.21872C19.3854 6.65423 18.9265 6.19529 18.362 5.90767C17.7202 5.58069 16.8802 5.58069 15.2 5.58069H8.8C7.11984 5.58069 6.27976 5.58069 5.63803 5.90767C5.07354 6.19529 4.6146 6.65423 4.32698 7.21872C4 7.86045 4 8.70053 4 10.3807V14.7807C4 16.4608 4 17.3009 4.32698 17.9427C4.6146 18.5071 5.07354 18.9661 5.63803 19.2537C6.27976 19.5807 7.11984 19.5807 8.8 19.5807ZM9 16.0807C9 16.3568 8.77614 16.5807 8.5 16.5807C8.22386 16.5807 8 16.3568 8 16.0807C8 15.8045 8.22386 15.5807 8.5 15.5807C8.77614 15.5807 9 15.8045 9 16.0807ZM16 16.0807C16 16.3568 15.7761 16.5807 15.5 16.5807C15.2239 16.5807 15 16.3568 15 16.0807C15 15.8045 15.2239 15.5807 15.5 15.5807C15.7761 15.5807 16 15.8045 16 16.0807Z" stroke="#6341D7" stroke-width="2" stroke-linecap="round" stroke-linejoin="round"/>
</svg>
