<svg width="27" height="30" viewBox="0 0 27 30" fill="none" xmlns="http://www.w3.org/2000/svg">
<path d="M25.5 12.3333H1.5M18.8333 1.66663V6.99996M8.16667 1.66663V6.99996M7.9 28.3333H19.1C21.3402 28.3333 22.4603 28.3333 23.316 27.8973C24.0686 27.5138 24.6805 26.9019 25.064 26.1493C25.5 25.2936 25.5 24.1735 25.5 21.9333V10.7333C25.5 8.49308 25.5 7.37298 25.064 6.51733C24.6805 5.76468 24.0686 5.15276 23.316 4.76927C22.4603 4.33329 21.3402 4.33329 19.1 4.33329H7.9C5.65979 4.33329 4.53969 4.33329 3.68404 4.76927C2.93139 5.15276 2.31947 5.76468 1.93597 6.51733C1.5 7.37298 1.5 8.49308 1.5 10.7333V21.9333C1.5 24.1735 1.5 25.2936 1.93597 26.1493C2.31947 26.9019 2.93139 27.5138 3.68404 27.8973C4.53969 28.3333 5.65979 28.3333 7.9 28.3333Z" stroke="white" stroke-opacity="0.5" stroke-width="2" stroke-linecap="round" stroke-linejoin="round"/>
</svg>
